<svg width="100%" height="100%" viewBox="0 0 500 500" xmlns="http://www.w3.org/2000/svg">
  <rect width="100%" height="100%" fill="#f0f0f0"/>
  <path d="M250,150 C194.772,150 150,194.772 150,250 C150,305.228 194.772,350 250,350 C305.228,350 350,305.228 350,250 C350,194.772 305.228,150 250,150 Z M250,300 C222.386,300 200,277.614 200,250 C200,222.386 222.386,200 250,200 C277.614,200 300,222.386 300,250 C300,277.614 277.614,300 250,300 Z" fill="#d0d0d0"/>
  <path d="M175,375 L325,375 L300,325 L250,275 L200,325 Z" fill="#d0d0d0"/>
  <text x="250" y="400" font-family="Arial" font-size="18" text-anchor="middle" fill="#a0a0a0">Fashion Image</text>
</svg>
